<svg width="24" height="24" viewBox="0 0 24 24" fill="none" xmlns="http://www.w3.org/2000/svg">
    <path fill-rule="evenodd" clip-rule="evenodd"
          d="M3.22995 7.9183C5.05127 6.09679 7.91698 4.25 11.9996 4.25C16.0822 4.25 18.9479 6.09679 20.7692 7.9183C21.677 8.82617 22.3313 9.73231 22.7599 10.4132C22.9747 10.7544 23.1343 11.0413 23.2419 11.2467C23.2957 11.3495 23.3367 11.4321 23.3651 11.4911C23.3793 11.5207 23.3904 11.5443 23.3985 11.5617L23.4082 11.583L23.4114 11.5901L23.413 11.5937C23.413 11.5937 23.4134 11.5946 22.4996 12.0007C23.4134 12.4069 23.413 12.4078 23.413 12.4078L23.4125 12.4089L23.4114 12.4115L23.4082 12.4185L23.3984 12.4398C23.3904 12.4572 23.3793 12.4809 23.3651 12.5104C23.3366 12.5694 23.2957 12.652 23.2419 12.7548C23.1343 12.9602 22.9747 13.247 22.7599 13.5882C22.3312 14.2689 21.6769 15.1748 20.7692 16.0825C18.9478 17.9037 16.0821 19.75 11.9996 19.75C7.91706 19.75 5.05136 17.9037 3.23003 16.0825C2.32225 15.1748 1.66797 14.2689 1.23933 13.5882C1.02451 13.247 0.864937 12.9602 0.757341 12.7548C0.703505 12.652 0.662569 12.5694 0.634136 12.5104C0.619916 12.4809 0.608812 12.4572 0.600775 12.4398L0.591011 12.4185L0.587839 12.4115L0.586679 12.4089L0.586205 12.4078C0.586205 12.4078 0.585802 12.4069 1.4996 12.0007C0.585769 11.5946 0.586172 11.5937 0.586172 11.5937L0.586646 11.5927L0.587806 11.5901L0.590977 11.583L0.600741 11.5617C0.608777 11.5443 0.61988 11.5207 0.634099 11.4911C0.662531 11.4321 0.703465 11.3495 0.757299 11.2467C0.864893 11.0413 1.02447 10.7544 1.23928 10.4132C1.66791 9.73231 2.32218 8.82617 3.22995 7.9183ZM1.4996 12.0007L0.586172 11.5937C0.471265 11.8523 0.471276 12.1493 0.586205 12.4078L1.4996 12.0007ZM2.62274 12.0007C2.70243 12.1447 2.80515 12.3214 2.93174 12.5225C3.29997 13.1072 3.86444 13.8886 4.64417 14.6682C6.19783 16.2217 8.58214 17.75 11.9996 17.75C15.4171 17.75 17.8014 16.2217 19.355 14.6682C20.1348 13.8886 20.6992 13.1072 21.0675 12.5225C21.194 12.3214 21.2968 12.1447 21.3765 12.0007C21.2968 11.8566 21.194 11.6798 21.0674 11.4787C20.6992 10.8938 20.1347 10.1122 19.355 9.33243C17.8013 7.77858 15.417 6.25 11.9996 6.25C8.58221 6.25 6.19793 7.77858 4.64424 9.33243C3.86451 10.1122 3.30003 10.8938 2.93179 11.4787C2.80518 11.6798 2.70244 11.8566 2.62274 12.0007ZM22.4996 12.0007L23.413 12.4078C23.5279 12.1493 23.5279 11.8523 23.413 11.5937L22.4996 12.0007Z"
          fill="currentColor"/>
    <path fill-rule="evenodd" clip-rule="evenodd"
          d="M12 9.25C10.4812 9.25 9.25 10.4812 9.25 12C9.25 13.5188 10.4812 14.75 12 14.75C13.5188 14.75 14.75 13.5188 14.75 12C14.75 10.4812 13.5188 9.25 12 9.25ZM7.25 12C7.25 9.37665 9.37665 7.25 12 7.25C14.6234 7.25 16.75 9.37665 16.75 12C16.75 14.6234 14.6234 16.75 12 16.75C9.37665 16.75 7.25 14.6234 7.25 12Z"
          fill="currentColor"/>
</svg>
